<svg id="Слой_1" data-name="Слой 1" xmlns="http://www.w3.org/2000/svg" viewBox="0 0 76.51 20.93">
  <defs>
    <style>
      .cls-1 {
        fill: #1d1d1b;
      }

      .cls-2 {
        fill: #878888;
      }
    </style>
  </defs>
  <g>
    <path class="cls-1" d="M0,8.61H.88V1.54H0V.89H3.18v.65H2.3V4.62H6.1V1.54H5.23V.89H8.41v.65H7.53V8.61h0l0,.65H6.1V8.61h0V5.33H2.3V8.61h.88v.65H0Z"/>
    <path class="cls-1" d="M9.53,8.61h.81V3.67H9.53V3h2.91v.65h-.79v2l-.1,1.56h0L14.37,4V3.67h-.79V3H16.5v.65h-.82V8.61h.82v.65H13.58V8.61h.79v-2L14.47,5h-.05L11.65,8.29v.32h.79v.65H9.53Z"/>
    <path class="cls-1" d="M17.21,8.61h.6l1.1-1.92A1.22,1.22,0,0,1,20,6L19.4,4.74A4,4,0,0,0,19,3.92H18.9a.69.69,0,0,1-.72.66.78.78,0,0,1-.78-.84.85.85,0,0,1,.92-.86c.6,0,1.09.33,1.62,1.53l.59,1.35h.79V3.67h-.79V3h2.89v.65h-.79V5.76h.79L24,4.41c.53-1.2,1-1.53,1.62-1.53a.85.85,0,0,1,.92.86.78.78,0,0,1-.78.84.7.7,0,0,1-.72-.66H25a4,4,0,0,0-.45.82L24,6a1.22,1.22,0,0,1,1,.71l1.1,1.92h.6v.65H25L23.42,6.4h-.79V8.61h.79v.65H20.53V8.61h.79V6.4h-.79L18.92,9.26H17.21Z"/>
    <path class="cls-1" d="M27.46,8.61h.81V3.67h-.81V3h2.95v.65h-.8V5.73h2.63V3.67h-.79V3H34.4v.65h-.82V8.61h.82v.65H31.45V8.61h.79V6.43H29.61V8.61h.8v.65H27.46Z"/>
    <path class="cls-1" d="M35.46,8.61h.81V3.67h-.81V3h2.91v.65h-.79v2l-.09,1.56h0L40.3,4V3.67h-.79V3h2.92v.65h-.82V8.61h.82v.65H39.51V8.61h.79v-2L40.4,5h0L37.58,8.29v.32h.79v.65H35.46Z"/>
    <path class="cls-1" d="M43.49,8.61h.81V3.67h-.81V3H46.4v.65h-.79v2l-.1,1.56h.05L48.33,4V3.67h-.79V3h2.92v.65h-.82V8.61h.82v.65H47.54V8.61h.79v-2L48.43,5h0L45.61,8.29v.32h.79v.65H43.49ZM44.9.76A.69.69,0,0,1,45.63,0a.66.66,0,0,1,.71.71.69.69,0,0,1-.48.68v0A3,3,0,0,0,47,1.6a2.93,2.93,0,0,0,1.11-.17v0a.7.7,0,0,1-.48-.68A.67.67,0,0,1,48.32,0a.69.69,0,0,1,.73.76c0,.74-.67,1.41-2.07,1.41S44.9,1.5,44.9.76Z"/>
  </g>
  <g>
    <path class="cls-1" d="M5.24,17.74h.87V9.86H5.23V9.22H8.41v.64H7.54v3.9H8.68l1-2.11c.66-1.37,1.17-1.79,1.92-1.79a.91.91,0,0,1,1,.93.81.81,0,0,1-.82.9A.74.74,0,0,1,11,11h0a5.88,5.88,0,0,0-.59,1l-1,2a1.38,1.38,0,0,1,1.14.86l1.71,2.89H13v.65H11l-2.3-3.93H7.54v3.28h.87v.65H5.24Z"/>
    <path class="cls-1" d="M13.41,15.27c0-2,1.17-3.26,2.92-3.26s2.93,1.25,2.93,3.26-1.18,3.26-2.93,3.26S13.41,17.29,13.41,15.27Zm4.39.84V14.43c0-1-.47-1.71-1.47-1.71s-1.46.68-1.46,1.71v1.68c0,1,.47,1.72,1.46,1.72S17.8,17.14,17.8,16.11Z"/>
    <path class="cls-1" d="M19.76,17.49a.74.74,0,0,1,.76-.82.65.65,0,0,1,.7.68.61.61,0,0,1-.31.55V18h.15a.55.55,0,0,0,.42-.18c.35-.35.64-1.06.64-4.08v-.9h-.91v-.65h5.53v.65h-.82v4.94h.82v.65h-3v-.65h.82V12.85H22.9v.8c0,3.07-.29,4-.83,4.49a1.58,1.58,0,0,1-1.14.39A1,1,0,0,1,19.76,17.49Z"/>
    <path class="cls-1" d="M27.77,15.27c0-2,1.18-3.26,2.93-3.26s2.92,1.25,2.92,3.26-1.17,3.26-2.92,3.26S27.77,17.29,27.77,15.27Zm4.39.84V14.43c0-1-.47-1.71-1.46-1.71s-1.47.68-1.47,1.71v1.68c0,1,.47,1.72,1.47,1.72S32.16,17.14,32.16,16.11Z"/>
    <path class="cls-1" d="M34.66,17.74h.81V12.8h-.81v-.65h3v.65h-.79v2.06h2.62V12.8h-.79v-.65h3v.65h-.81v4.94h.81v.65h-3v-.65h.79V15.56H36.82v2.18h.79v.65h-3Z"/>
    <path class="cls-1" d="M43.83,17.74h1V12.85H43.42V14h-.91V12.15h5.9V14H47.5V12.85H46.13v4.89h1v.65H43.83Z"/>
    <path class="cls-1" d="M49.31,17.74h.82V12.8h-.82v-.65h2.91v.65h-.79v2l-.09,1.56h0l2.77-3.28V12.8h-.8v-.65h2.92v.65h-.82v4.94h.82v.65H53.36v-.65h.8v-2l.09-1.56h0l-2.77,3.28v.32h.79v.65H49.31Z"/>
    <path class="cls-1" d="M58.5,17.74h1V12.85H58.09V14h-.91V12.15h5.9V14h-.91V12.85H60.8v4.89h1v.65H58.5Z"/>
    <path class="cls-1" d="M63.71,19.89a.71.71,0,0,1,.76-.79.67.67,0,0,1,.7.72.61.61,0,0,1-.25.51v.05a.94.94,0,0,0,.25,0c.42,0,.81-.4,1.12-1.21l.19-.52L64.2,12.8h-.6v-.65h2.84v.65h-.8L67.13,17h.06l1.47-4.16h-.79v-.65h2.2v.65h-.6L67,19.25c-.35.88-.9,1.68-1.94,1.68C64.15,20.93,63.71,20.48,63.71,19.89Z"/>
    <path class="cls-1" d="M69.53,17.49a.74.74,0,0,1,.77-.82.64.64,0,0,1,.69.68.59.59,0,0,1-.31.55V18h.16a.57.57,0,0,0,.42-.18c.35-.35.63-1.06.63-4.08v-.9H71v-.65h5.53v.65H75.7v4.94h.81v.65h-3v-.65h.81V12.85H72.67v.8c0,3.07-.29,4-.82,4.49a1.6,1.6,0,0,1-1.14.39A1.05,1.05,0,0,1,69.53,17.49Z"/>
  </g>
  <g>
    <path class="cls-2" d="M5.23,20.87V19.15h1v.13H5.38v.65h.78v.13H5.38v.81Z"/>
    <path class="cls-2" d="M7.57,20.87l-.19-.53H6.65l-.19.53H6.31l.61-1.72h.19l.61,1.72ZM7,19.29H7l-.33.92h.66Z"/>
    <path class="cls-2" d="M8.45,20l-.27.3v.58H8V19.15h.15v1h0l.28-.32L9,19.15H9.2l-.64.73.68,1H9.05Z"/>
    <path class="cls-2" d="M9.53,20.87V19.15h1v.13H9.68v.65h.81v.13H9.68v.68h.86v.13Z"/>
    <path class="cls-2" d="M11.68,19.36h0v1.51h-.14V19.15h.18l.9,1.52h0V19.15h.14v1.72h-.18Z"/>
    <path class="cls-2" d="M13.25,20.87V19.15h1v.13H13.4v.65h.81v.13H13.4v.68h.86v.13Z"/>
    <path class="cls-2" d="M14.91,20.87l-.43-1.72h.16L15,20.69h0l.41-1.54h.18l.4,1.54h0l.38-1.54h.15l-.45,1.72h-.17l-.41-1.55h0l-.41,1.55Z"/>
    <path class="cls-2" d="M16.7,20.61l.11-.09a.57.57,0,0,0,.49.25c.27,0,.42-.13.42-.36s-.13-.29-.35-.34l-.15,0c-.33-.07-.47-.22-.47-.46s.22-.46.55-.46a.59.59,0,0,1,.54.27l-.11.08a.48.48,0,0,0-.44-.22c-.24,0-.4.11-.4.32s.14.29.36.33l.15,0c.34.08.46.24.46.47s-.21.5-.56.5A.7.7,0,0,1,16.7,20.61Z"/>
    <path class="cls-2" d="M18.82,19.15H19l.55,1h0l.54-1h.19v1.72h-.14V19.34h0l-.59,1.05L19,19.34h0v1.53h-.15Z"/>
    <path class="cls-2" d="M20.8,20.87V19.15h1v.13H21v.65h.81v.13H21v.68h.86v.13Z"/>
    <path class="cls-2" d="M22.22,19.15h.54c.44,0,.7.29.7.86s-.26.86-.7.86h-.54Zm.54,1.59c.34,0,.54-.23.54-.61V19.9c0-.38-.2-.62-.54-.62h-.4v1.46Z"/>
    <path class="cls-2" d="M23.77,20.87v-.12H24V19.28h-.25v-.13h.65v.13h-.25v1.47h.25v.12Z"/>
    <path class="cls-2" d="M25.89,20.87l-.19-.53H25l-.18.53h-.15l.61-1.72h.19l.61,1.72Zm-.55-1.58h0l-.32.92h.66Z"/>
    <path class="cls-2" d="M28.05,20.61h0a.5.5,0,0,1-.51.29c-.42,0-.69-.31-.69-.89s.27-.89.7-.89a.62.62,0,0,1,.6.37l-.12.07a.49.49,0,0,0-.48-.3c-.33,0-.54.24-.54.65v.21c0,.41.21.65.55.65s.49-.14.49-.42v-.21h-.4V20h.54v.85h-.14Z"/>
    <path class="cls-2" d="M28.77,20.87h-.15V19.15h.68a.48.48,0,0,1,.08,1l.42.77h-.16l-.42-.76h-.45ZM29.3,20a.28.28,0,0,0,.3-.3v-.12a.28.28,0,0,0-.3-.29h-.53V20Z"/>
    <path class="cls-2" d="M30.07,20c0-.58.27-.89.71-.89s.7.31.7.89-.27.89-.7.89S30.07,20.59,30.07,20Zm1.25.11V19.9c0-.4-.21-.64-.54-.64s-.55.24-.55.64v.22c0,.41.22.65.55.65S31.32,20.53,31.32,20.12Z"/>
    <path class="cls-2" d="M32,19.15v1.06c0,.39.11.56.45.56s.44-.17.44-.56V19.15h.15v1c0,.51-.16.72-.6.72s-.59-.21-.59-.72v-1Z"/>
    <path class="cls-2" d="M33.52,20.87V19.15h.68a.49.49,0,0,1,0,1h-.53v.75Zm.15-.88h.53a.28.28,0,0,0,.3-.3v-.12a.28.28,0,0,0-.3-.29h-.53Z"/>
  </g>
</svg>
